<?xml version="1.0" encoding="UTF-8"?>
<svg width="681" height="173" version="1.1" viewBox="0 0 680.99999 173" xml:space="preserve" xmlns="http://www.w3.org/2000/svg" xmlns:cc="http://creativecommons.org/ns#" xmlns:dc="http://purl.org/dc/elements/1.1/" xmlns:rdf="http://www.w3.org/1999/02/22-rdf-syntax-ns#"><metadata><rdf:RDF><cc:Work rdf:about=""><dc:format>image/svg+xml</dc:format><dc:type rdf:resource="http://purl.org/dc/dcmitype/StillImage"/><dc:title/></cc:Work></rdf:RDF></metadata><defs><clipPath id="a"><path d="M 0,595.28 H 841.89 V 0 H 0 Z"/></clipPath></defs><g transform="matrix(1.3333 0 0 -1.3333 -219.01 518.34)"><g transform="translate(636.89 311.57)"><path d="m0 0-10.746 10.746 38.376 38.376 10.746-10.746z" fill="#461e7d"/></g><g transform="translate(584.55 259.23)"><path d="m0 0-10.746 10.746 38.376 38.376 10.746-10.746z" fill="#461e7d"/></g><g transform="translate(626.14 297.61)"><path d="m0 0 10.746 10.746 38.376-38.376-10.747-10.746z" fill="#461e7d"/></g><g transform="translate(573.8 349.94)"><path d="m0 0 10.746 10.746 38.376-38.376-10.746-10.746z" fill="#461e7d"/></g><g clip-path="url(#a)"><g transform="translate(476.85 316.55)"><path d="m0 0c-4 23.011-24.167 40.507-48.322 40.507-27.033 0-48.949-21.915-48.949-48.949s21.916-48.949 48.949-48.949c15.82 0 29.886 7.505 38.835 19.149l-11.59 8.893c-6.278-8.168-16.147-13.433-27.245-13.433-18.965 0-34.34 15.375-34.34 34.34 0 18.966 15.375 34.34 34.34 34.34 16.053 0 29.632-11.014 33.394-25.898h-36.202v-14.609h51.13z" fill="#461e7d"/></g><g transform="translate(263.5 316.55)"><path d="m0 0c-4 23.011-24.167 40.507-48.322 40.507-27.033 0-48.949-21.915-48.949-48.949s21.916-48.949 48.949-48.949c15.82 0 29.887 7.505 38.835 19.149l-11.59 8.893c-6.278-8.168-16.146-13.433-27.245-13.433-18.965 0-34.34 15.375-34.34 34.34 0 18.966 15.375 34.34 34.34 34.34 16.053 0 29.632-11.014 33.394-25.898h-36.202v-14.609h51.13z" fill="#461e7d"/></g><g transform="translate(506.07 292.12)"><path d="M 0,0 V 95.066 H -14.609 V 0 c 0,-15.417 7.187,-24.703 19.651,-32.89 l 8.342,11.979 C 4.857,-15.096 0,-10.544 0,0" fill="#461e7d"/></g><g transform="translate(365.84 316.58)"><path d="m0 0c0 22.592-18.248 40.461-40.594 40.461-12.722 0-24.167-5.09-32.529-13.337v9.366h-14.608v-51.13h14.608v12.1c2.204 11.728 12.595 28.392 32.516 28.392 14.278 0 25.998-11.274 25.998-25.852v-55.937h14.609z" fill="#461e7d"/></g></g></g></svg>
